<?xml version="1.0" encoding="UTF-8" standalone="no"?>
<!DOCTYPE svg PUBLIC "-//W3C//DTD SVG 1.1//EN" "http://www.w3.org/Graphics/SVG/1.1/DTD/svg11.dtd">
<svg xmlns="http://www.w3.org/2000/svg" version="1.1" viewBox="0.00 0.00 512.00 512.00">
<g stroke-width="2.00" fill="none" stroke-linecap="butt">
<path stroke="#8d91aa" vector-effect="non-scaling-stroke" d="
  M 131.86 379.90
  Q 132.44 380.37 133.01 381.10
  Q 133.63 381.91 134.08 382.33
  Q 183.74 429.20 252.33 431.60
  C 257.26 431.77 262.08 431.41 267.01 431.17
  Q 272.96 430.88 277.99 430.21
  Q 338.00 422.21 380.79 379.33"
/>
<path stroke="#95c8fa" vector-effect="non-scaling-stroke" d="
  M 380.79 379.33
  Q 411.61 347.69 423.74 307.25
  C 445.41 235.05 419.48 157.35 358.01 113.39
  Q 319.96 86.17 273.48 81.57
  C 196.55 73.94 124.02 117.23 94.13 188.48
  C 83.03 214.95 78.49 244.76 81.57 273.72
  Q 88.09 335.12 131.86 379.90"
/>
<path stroke="#3f73ab" vector-effect="non-scaling-stroke" d="
  M 380.79 379.33
  Q 380.46 366.38 374.97 353.56"
/>
<path stroke="#4377b3" vector-effect="non-scaling-stroke" d="
  M 374.97 353.56
  Q 364.53 326.41 341.85 308.63
  Q 320.21 291.66 292.45 287.50
  Q 284.18 286.26 272.92 286.37
  Q 254.15 286.54 237.52 286.38
  C 210.11 286.10 184.70 295.20 164.57 313.33
  Q 145.96 330.09 137.02 353.52"
/>
<path stroke="#3f73ab" vector-effect="non-scaling-stroke" d="
  M 137.02 353.52
  Q 132.59 364.59 131.19 375.25
  Q 130.98 376.82 131.86 379.90"
/>
<path stroke="#3b4163" vector-effect="non-scaling-stroke" d="
  M 374.97 353.56
  Q 343.98 382.00 304.50 393.30
  Q 262.99 405.19 219.88 396.37
  Q 173.47 386.88 137.02 353.52"
/>
<path stroke="#a3b0dc" vector-effect="non-scaling-stroke" d="
  M 322.51 196.52
  A 66.51 66.51 0.0 0 0 256.00 130.01
  A 66.51 66.51 0.0 0 0 189.49 196.52
  A 66.51 66.51 0.0 0 0 256.00 263.03
  A 66.51 66.51 0.0 0 0 322.51 196.52"
/>
</g>
<path fill="#e2e6f8" d="
  M 487.96 255.99
  A 231.96 231.96 0.0 0 1 256.00 487.95
  A 231.96 231.96 0.0 0 1 24.04 255.99
  A 231.96 231.96 0.0 0 1 256.00 24.03
  A 231.96 231.96 0.0 0 1 487.96 255.99
  Z
  M 131.86 379.90
  Q 132.44 380.37 133.01 381.10
  Q 133.63 381.91 134.08 382.33
  Q 183.74 429.20 252.33 431.60
  C 257.26 431.77 262.08 431.41 267.01 431.17
  Q 272.96 430.88 277.99 430.21
  Q 338.00 422.21 380.79 379.33
  Q 411.61 347.69 423.74 307.25
  C 445.41 235.05 419.48 157.35 358.01 113.39
  Q 319.96 86.17 273.48 81.57
  C 196.55 73.94 124.02 117.23 94.13 188.48
  C 83.03 214.95 78.49 244.76 81.57 273.72
  Q 88.09 335.12 131.86 379.90
  Z"
/>
<path fill="#47a9fb" d="
  M 380.79 379.33
  Q 380.46 366.38 374.97 353.56
  Q 364.53 326.41 341.85 308.63
  Q 320.21 291.66 292.45 287.50
  Q 284.18 286.26 272.92 286.37
  Q 254.15 286.54 237.52 286.38
  C 210.11 286.10 184.70 295.20 164.57 313.33
  Q 145.96 330.09 137.02 353.52
  Q 132.59 364.59 131.19 375.25
  Q 130.98 376.82 131.86 379.90
  Q 88.09 335.12 81.57 273.72
  C 78.49 244.76 83.03 214.95 94.13 188.48
  C 124.02 117.23 196.55 73.94 273.48 81.57
  Q 319.96 86.17 358.01 113.39
  C 419.48 157.35 445.41 235.05 423.74 307.25
  Q 411.61 347.69 380.79 379.33
  Z
  M 322.51 196.52
  A 66.51 66.51 0.0 0 0 256.00 130.01
  A 66.51 66.51 0.0 0 0 189.49 196.52
  A 66.51 66.51 0.0 0 0 256.00 263.03
  A 66.51 66.51 0.0 0 0 322.51 196.52
  Z"
/>
<circle fill="#feb7bd" cx="256.00" cy="196.52" r="66.51"/>
<path fill="#3f456a" d="
  M 374.97 353.56
  Q 343.98 382.00 304.50 393.30
  Q 262.99 405.19 219.88 396.37
  Q 173.47 386.88 137.02 353.52
  Q 145.96 330.09 164.57 313.33
  C 184.70 295.20 210.11 286.10 237.52 286.38
  Q 254.15 286.54 272.92 286.37
  Q 284.18 286.26 292.45 287.50
  Q 320.21 291.66 341.85 308.63
  Q 364.53 326.41 374.97 353.56
  Z"
/>
<path fill="#373c5b" d="
  M 374.97 353.56
  Q 380.46 366.38 380.79 379.33
  Q 338.00 422.21 277.99 430.21
  Q 272.96 430.88 267.01 431.17
  C 262.08 431.41 257.26 431.77 252.33 431.60
  Q 183.74 429.20 134.08 382.33
  Q 133.63 381.91 133.01 381.10
  Q 132.44 380.37 131.86 379.90
  Q 130.98 376.82 131.19 375.25
  Q 132.59 364.59 137.02 353.52
  Q 173.47 386.88 219.88 396.37
  Q 262.99 405.19 304.50 393.30
  Q 343.98 382.00 374.97 353.56
  Z"
/>
</svg>
