<?xml version="1.0" encoding="UTF-8" standalone="no"?>
<!DOCTYPE svg PUBLIC "-//W3C//DTD SVG 1.1//EN" "http://www.w3.org/Graphics/SVG/1.1/DTD/svg11.dtd">
<svg xmlns="http://www.w3.org/2000/svg" version="1.1" viewBox="0.00 0.00 512.00 512.00">
<path fill="#000000" d="
  M 224.00 231.92
  A 8.08 8.08 0.0 0 1 215.92 240.00
  L 40.08 240.00
  A 8.08 8.08 0.0 0 1 32.00 231.92
  L 32.00 40.08
  A 8.08 8.08 0.0 0 1 40.08 32.00
  L 215.92 32.00
  A 8.08 8.08 0.0 0 1 224.00 40.08
  L 224.00 231.92
  Z
  M 140.24 152.74
  C 119.50 162.32 96.31 138.00 106.97 118.19
  C 110.70 111.25 120.29 103.16 126.79 96.63
  C 132.22 91.17 132.03 87.37 126.47 81.81
  Q 108.53 63.82 90.54 45.88
  C 86.62 41.96 81.93 39.72 77.57 44.07
  C 69.03 52.57 58.54 62.02 52.40 70.81
  C 32.48 99.35 35.94 137.95 60.31 162.68
  Q 67.69 170.17 91.75 194.10
  Q 101.34 203.63 106.71 207.34
  C 131.98 224.77 166.43 223.76 190.74 205.28
  C 198.40 199.46 207.13 189.95 214.90 182.15
  C 219.85 177.17 217.32 172.63 212.95 168.27
  Q 195.13 150.44 177.29 132.63
  C 173.43 128.77 168.59 126.54 164.33 130.83
  Q 157.43 137.80 150.47 144.69
  Q 144.20 150.91 140.24 152.74
  Z"
/>
<path fill="#000000" d="
  M 383.35 226.56
  C 377.11 201.59 342.26 202.18 336.57 227.40
  C 335.76 230.99 336.00 235.44 336.00 239.46
  Q 336.00 239.99 335.47 239.99
  Q 317.33 240.01 299.22 240.00
  C 291.91 240.00 288.01 238.21 288.00 230.49
  Q 288.00 135.25 288.00 40.00
  C 288.00 33.59 293.12 32.00 298.85 32.00
  Q 385.30 32.00 471.75 32.00
  C 478.40 32.00 480.00 36.95 480.00 42.92
  Q 480.00 137.33 480.00 231.75
  C 480.00 238.17 475.25 239.98 469.39 239.99
  Q 426.97 240.02 384.55 239.99
  Q 384.01 239.99 384.01 239.46
  C 383.98 235.17 384.32 230.44 383.35 226.56
  Z
  M 406.16 151.81
  C 421.81 168.34 447.59 157.98 448.00 135.75
  Q 448.20 125.23 447.73 121.49
  C 443.37 86.35 413.10 60.63 377.49 64.29
  C 339.11 68.23 312.43 105.40 321.94 143.60
  C 327.79 167.09 347.16 185.70 370.85 190.62
  Q 377.21 191.94 390.75 192.00
  Q 409.88 192.08 416.01 191.99
  C 423.88 191.88 427.01 181.49 420.35 177.37
  Q 418.16 176.02 413.72 176.01
  Q 398.86 175.97 384.00 176.03
  Q 366.94 176.09 354.06 165.54
  C 328.47 144.58 330.32 104.50 358.84 87.09
  C 387.34 69.69 424.03 85.82 431.05 118.24
  Q 432.53 125.06 431.98 135.12
  C 431.33 147.11 416.20 146.42 416.06 136.00
  C 416.01 131.51 416.27 126.46 415.47 122.37
  C 408.34 85.71 356.09 88.46 352.32 124.93
  C 351.08 136.95 357.52 149.34 367.68 155.25
  C 379.97 162.39 394.37 160.96 405.30 151.76
  Q 405.75 151.38 406.16 151.81
  Z"
/>
<rect fill="#000000" x="-20.00" y="-4.02" transform="translate(94.45,78.06) rotate(45.0)" width="40.00" height="8.04" rx="0.51"/>
<path fill="#000000" d="
  M 94.78 107.27
  C 71.98 144.47 114.62 186.78 152.16 164.52
  Q 152.46 164.34 152.70 164.59
  L 180.57 192.44
  A 0.37 0.37 0.0 0 1 180.52 193.00
  C 157.64 208.97 127.81 207.32 107.67 187.33
  Q 89.79 169.58 72.06 151.70
  C 52.19 131.65 50.07 101.44 66.31 78.85
  A 0.41 0.40 39.8 0 1 66.92 78.80
  L 94.69 106.56
  Q 95.01 106.89 94.78 107.27
  Z"
/>
<circle fill="#000000" cx="383.99" cy="127.99" r="15.98"/>
<rect fill="#000000" x="-4.02" y="-20.00" transform="translate(181.24,164.85) rotate(-45.0)" width="8.04" height="40.00" rx="0.44"/>
<path fill="#000000" d="
  M 336.86 395.19
  C 340.60 403.00 352.00 400.48 352.00 391.81
  Q 352.00 311.78 352.00 231.75
  C 352.00 224.03 363.88 221.01 367.19 228.44
  Q 368.00 230.25 368.00 234.17
  Q 368.00 296.96 368.01 359.75
  C 368.01 365.81 374.03 369.77 379.48 367.19
  C 383.17 365.45 383.98 362.25 383.99 358.13
  Q 384.03 332.78 383.98 307.42
  Q 383.97 302.71 384.81 300.70
  C 388.14 292.73 400.02 295.65 400.01 304.24
  Q 399.98 330.99 400.01 357.72
  Q 400.01 362.15 401.37 364.35
  C 405.20 370.55 415.96 368.03 415.98 360.76
  Q 416.04 341.93 415.98 323.11
  Q 415.96 318.57 416.88 316.53
  C 420.39 308.71 432.03 311.78 432.02 320.24
  Q 431.98 338.99 432.01 357.72
  Q 432.02 362.15 433.37 364.35
  C 437.28 370.69 447.95 367.99 447.98 360.51
  Q 448.04 349.85 447.98 339.20
  Q 447.96 334.52 448.92 332.45
  C 451.80 326.22 460.67 326.76 463.36 332.98
  Q 463.99 334.44 463.99 337.12
  Q 464.02 387.14 463.99 437.16
  A 1.56 1.51 -29.0 0 1 463.73 438.01
  L 449.22 459.76
  A 7.21 7.20 -28.1 0 0 448.00 463.77
  L 448.00 479.50
  Q 448.00 480.00 447.50 480.00
  L 352.47 480.00
  Q 351.84 480.00 351.83 479.38
  Q 351.61 471.82 351.49 464.52
  Q 351.44 461.74 349.41 459.35
  Q 338.43 446.43 327.51 433.59
  A 3.65 3.58 15.9 0 1 326.85 432.43
  L 294.39 338.02
  A 0.33 0.33 0.0 0 1 294.62 337.59
  C 302.07 335.54 307.47 332.78 311.66 341.77
  Q 324.11 368.55 336.86 395.19
  Z"
/>
<path fill="#000000" d="
  M 224.00 471.92
  A 8.08 8.08 0.0 0 1 215.92 480.00
  L 40.08 480.00
  A 8.08 8.08 0.0 0 1 32.00 471.92
  L 32.00 296.08
  A 8.08 8.08 0.0 0 1 40.08 288.00
  L 215.92 288.00
  A 8.08 8.08 0.0 0 1 224.00 296.08
  L 224.00 471.92
  Z
  M 208.00 336.08
  A 8.08 8.08 0.0 0 0 199.92 328.00
  L 56.08 328.00
  A 8.08 8.08 0.0 0 0 48.00 336.08
  L 48.00 431.92
  A 8.08 8.08 0.0 0 0 56.08 440.00
  L 199.92 440.00
  A 8.08 8.08 0.0 0 0 208.00 431.92
  L 208.00 336.08
  Z"
/>
<path fill="#000000" d="
  M 178.34 344.53
  L 128.20 389.03
  A 0.30 0.30 0.0 0 1 127.80 389.03
  L 77.66 344.53
  A 0.30 0.30 0.0 0 1 77.86 344.00
  L 178.14 344.00
  A 0.30 0.30 0.0 0 1 178.34 344.53
  Z"
/>
<path fill="#000000" d="
  M 64.58 354.31
  L 97.81 383.77
  A 0.35 0.35 0.0 0 1 97.81 384.29
  L 64.58 413.75
  A 0.35 0.35 0.0 0 1 64.00 413.49
  L 64.00 354.57
  A 0.35 0.35 0.0 0 1 64.58 354.31
  Z"
/>
<path fill="#000000" d="
  M 191.46 413.77
  L 158.20 384.28
  A 0.32 0.32 0.0 0 1 158.20 383.80
  L 191.46 354.31
  A 0.32 0.32 0.0 0 1 192.00 354.55
  L 192.00 413.53
  A 0.32 0.32 0.0 0 1 191.46 413.77
  Z"
/>
<path fill="#000000" d="
  M 117.88 401.61
  C 123.73 406.96 132.78 405.95 138.45 401.21
  Q 142.11 398.16 145.45 395.16
  Q 145.88 394.77 146.31 395.15
  L 178.21 423.37
  Q 178.92 424.00 177.97 424.00
  L 77.96 424.00
  A 0.32 0.32 0.0 0 1 77.75 423.44
  L 109.66 395.13
  Q 110.09 394.75 110.54 395.12
  Q 114.31 398.35 117.88 401.61
  Z"
/>
</svg>
