<?xml version="1.0" encoding="UTF-8" standalone="no"?>
<!DOCTYPE svg PUBLIC "-//W3C//DTD SVG 1.1//EN" "http://www.w3.org/Graphics/SVG/1.1/DTD/svg11.dtd">
<svg xmlns="http://www.w3.org/2000/svg" version="1.1" viewBox="0.00 0.00 512.00 512.00">
<rect fill="#000000" x="125.77" y="25.56" width="270.52" height="45.02" rx="13.06"/>
<path fill="#000000" d="
  M 80.96 237.26
  C 82.66 189.02 94.78 141.04 116.96 97.96
  Q 120.98 90.15 124.40 87.05
  Q 130.90 81.13 140.25 81.13
  Q 260.50 81.15 380.75 81.08
  Q 390.70 81.07 397.33 86.84
  Q 401.25 90.25 406.13 100.19
  Q 440.36 169.91 440.37 247.50
  Q 440.37 351.50 440.36 455.50
  C 440.36 469.12 432.51 480.77 419.76 484.86
  Q 414.89 486.42 401.58 486.42
  Q 260.92 486.41 120.26 486.42
  Q 106.45 486.42 101.86 485.06
  C 92.16 482.20 84.16 473.79 81.65 463.82
  Q 80.76 460.28 80.76 453.10
  Q 80.74 355.18 80.75 257.26
  Q 80.75 243.16 80.96 237.26
  Z
  M 193.08 253.48
  C 195.23 254.79 195.94 257.39 195.94 259.75
  Q 195.90 324.50 195.89 389.25
  C 195.89 406.24 219.35 411.11 225.94 395.69
  Q 227.26 392.58 227.26 386.12
  Q 227.26 323.27 227.27 260.42
  C 227.27 257.84 227.84 254.61 229.90 253.39
  Q 245.97 243.84 249.96 226.88
  Q 251.24 221.44 251.27 206.99
  Q 251.31 189.94 251.24 172.89
  C 251.23 168.72 250.45 165.69 247.02 163.56
  C 244.84 162.20 242.03 162.48 239.46 162.49
  C 232.29 162.53 230.04 166.57 230.02 173.11
  Q 229.98 192.58 230.00 212.06
  C 230.00 217.07 229.25 221.00 224.94 223.39
  C 220.49 225.86 210.34 224.79 204.68 224.75
  C 195.93 224.69 193.20 220.13 193.20 211.63
  Q 193.21 191.33 193.17 171.05
  Q 193.16 165.04 187.64 162.96
  C 185.74 162.24 183.15 162.52 181.03 162.53
  C 173.95 162.56 171.94 166.90 171.91 173.24
  Q 171.84 190.24 171.89 207.23
  Q 171.93 221.58 173.26 227.12
  Q 177.29 243.93 193.08 253.48
  Z
  M 206.15 218.93
  L 217.05 218.93
  A 5.19 5.19 0.0 0 0 222.24 213.74
  L 222.24 171.03
  A 8.56 8.05 -90.0 0 0 214.19 162.47
  L 209.01 162.47
  A 8.56 8.05 90.0 0 0 200.96 171.03
  L 200.96 213.74
  A 5.19 5.19 0.0 0 0 206.15 218.93
  Z
  M 312.93 162.62
  C 285.01 161.40 270.66 185.91 272.63 210.99
  C 273.78 225.57 279.91 239.14 291.54 247.99
  C 293.97 249.84 295.36 251.58 295.36 254.50
  Q 295.37 322.05 295.56 389.60
  C 295.61 410.24 326.26 409.49 326.26 389.50
  Q 326.24 322.47 326.26 255.44
  C 326.26 253.29 326.88 250.33 328.46 249.20
  C 343.95 238.16 350.69 219.28 349.00 200.75
  C 347.17 180.76 333.57 163.52 312.93 162.62
  Z"
/>
</svg>
