<?xml version="1.0" encoding="UTF-8" standalone="no"?>
<!DOCTYPE svg PUBLIC "-//W3C//DTD SVG 1.1//EN" "http://www.w3.org/Graphics/SVG/1.1/DTD/svg11.dtd">
<svg xmlns="http://www.w3.org/2000/svg" version="1.1" viewBox="0.00 0.00 512.00 512.00">
<path fill="#000000" d="
  M 191.57 416.06
  Q 125.65 415.82 108.50 416.02
  C 88.11 416.26 70.09 403.51 65.29 383.39
  Q 63.99 377.96 63.99 363.51
  Q 64.02 223.88 63.99 84.26
  Q 63.98 70.03 65.35 64.37
  C 69.13 48.62 82.54 35.67 98.88 32.72
  Q 102.86 32.00 113.16 32.00
  Q 259.20 32.00 405.25 32.00
  C 424.49 32.00 442.25 45.49 446.71 64.35
  Q 448.01 69.81 448.00 84.24
  Q 447.99 223.87 448.01 363.49
  Q 448.01 377.87 446.72 383.39
  C 442.20 402.67 424.55 416.09 404.50 416.06
  Q 362.52 416.00 320.53 415.99
  A 1.26 1.26 0.0 0 0 319.63 416.37
  L 256.39 479.61
  A 0.52 0.51 -44.6 0 1 255.66 479.61
  L 192.51 416.46
  Q 192.12 416.07 191.57 416.06
  Z
  M 313.62 159.99
  A 57.62 57.62 0.0 0 0 256.00 102.37
  A 57.62 57.62 0.0 0 0 198.38 159.99
  A 57.62 57.62 0.0 0 0 256.00 217.61
  A 57.62 57.62 0.0 0 0 313.62 159.99
  Z
  M 175.37 262.54
  C 155.85 270.50 128.05 287.28 128.00 311.75
  Q 127.98 321.15 128.01 330.39
  A 0.30 0.30 0.0 0 0 128.31 330.68
  L 383.51 330.68
  A 0.51 0.51 0.0 0 0 384.02 330.17
  Q 384.01 320.60 383.84 311.00
  C 383.39 286.06 354.50 269.63 334.33 261.61
  Q 301.16 248.44 265.74 245.76
  Q 255.76 245.01 245.77 245.80
  Q 209.36 248.67 175.37 262.54
  Z"
/>
</svg>
