<?xml version="1.0" encoding="UTF-8" standalone="no"?>
<!DOCTYPE svg PUBLIC "-//W3C//DTD SVG 1.1//EN" "http://www.w3.org/Graphics/SVG/1.1/DTD/svg11.dtd">
<svg xmlns="http://www.w3.org/2000/svg" version="1.1" viewBox="0.00 0.00 512.00 512.00">
<path fill="#000000" d="
  M 151.61 0.00
  L 360.57 0.00
  C 387.79 2.01 409.27 21.88 411.69 49.21
  C 412.04 53.09 411.28 56.95 407.05 57.63
  Q 373.42 63.09 350.25 85.75
  C 327.19 108.31 316.36 139.86 320.53 171.87
  Q 320.78 173.73 320.64 174.63
  C 320.01 178.83 312.17 184.39 308.60 186.90
  C 290.10 199.91 295.07 229.57 316.71 236.13
  C 331.65 240.65 345.79 241.73 361.33 241.49
  A 4.47 4.43 -28.1 0 1 363.90 242.26
  Q 382.64 255.09 405.37 258.75
  C 409.22 259.38 412.00 260.92 412.00 265.00
  Q 412.01 286.24 411.99 307.49
  C 411.98 310.30 411.01 313.53 408.26 314.25
  Q 375.55 322.75 356.19 347.99
  C 354.71 349.92 353.29 351.28 351.00 351.34
  C 345.23 351.49 338.62 349.89 333.33 350.64
  C 316.10 353.09 304.81 371.85 312.55 387.92
  Q 321.08 405.62 338.26 420.43
  C 339.01 421.08 339.65 422.13 339.87 423.01
  Q 350.93 467.45 391.54 487.32
  C 398.38 490.67 397.45 495.45 392.08 499.78
  Q 378.39 510.83 360.39 512.00
  L 151.65 512.00
  C 122.88 510.12 99.98 487.02 100.00 458.50
  Q 100.01 437.75 99.99 417.00
  Q 99.99 412.89 103.21 411.47
  Q 104.89 410.73 108.86 411.05
  C 168.91 415.86 223.00 381.51 244.10 325.15
  Q 244.28 324.67 245.26 323.75
  Q 245.85 323.20 246.73 322.70
  Q 269.82 309.55 287.33 289.55
  C 290.83 285.55 294.47 281.06 296.49 276.36
  C 304.03 258.80 293.95 238.86 275.80 233.92
  Q 272.83 233.11 266.12 232.85
  Q 254.66 232.41 244.00 228.99
  Q 241.21 228.10 239.91 225.30
  Q 222.60 188.08 188.24 167.28
  C 163.42 152.26 136.04 146.63 106.50 149.16
  C 101.40 149.59 100.00 145.38 100.00 140.93
  Q 100.00 97.59 100.08 54.25
  C 100.14 24.71 122.25 2.20 151.61 0.00
  Z
  M 324.89 12.60
  Q 325.21 12.00 324.53 12.00
  L 187.51 12.00
  Q 187.00 12.00 187.23 12.45
  Q 195.01 27.97 198.14 32.84
  Q 202.86 40.17 211.06 42.71
  Q 215.25 44.01 226.57 44.00
  Q 256.29 43.99 286.01 44.00
  Q 296.92 44.01 301.33 42.47
  Q 310.46 39.30 315.51 29.99
  Q 319.92 21.84 324.89 12.60
  Z
  M 303.96 453.92
  A 5.91 5.91 0.0 0 0 298.05 448.01
  L 213.95 448.01
  A 5.91 5.91 0.0 0 0 208.04 453.92
  L 208.04 454.08
  A 5.91 5.91 0.0 0 0 213.95 459.99
  L 298.05 459.99
  A 5.91 5.91 0.0 0 0 303.96 454.08
  L 303.96 453.92
  Z"
/>
<path fill="#000000" d="
  M 366.47 229.35
  A 2.92 2.91 58.1 0 0 364.55 228.90
  Q 343.76 231.29 323.84 225.60
  Q 317.26 223.72 314.30 221.08
  C 309.62 216.90 308.01 210.03 310.11 204.08
  C 311.82 199.25 315.30 196.90 319.99 193.47
  C 322.18 191.87 334.36 180.64 333.57 176.75
  C 326.60 142.81 339.65 107.19 367.31 86.58
  C 395.96 65.23 436.28 63.45 467.01 81.26
  C 499.73 100.22 517.25 139.97 508.73 176.76
  C 494.70 237.37 428.63 267.40 374.37 234.68
  C 371.96 233.23 369.11 231.05 366.47 229.35
  Z
  M 422.67 132.17
  Q 422.25 132.67 421.78 132.22
  Q 415.87 126.58 409.20 124.79
  Q 402.46 122.98 395.42 125.60
  C 384.56 129.65 379.57 139.95 380.27 151.26
  C 381.64 173.26 398.34 188.28 416.29 198.44
  Q 421.54 201.41 426.19 199.17
  Q 437.67 193.64 448.75 182.76
  C 460.03 171.69 469.00 151.28 460.68 136.09
  C 452.99 122.04 433.12 119.68 422.67 132.17
  Z"
/>
<path fill="#000000" d="
  M 234.01 317.76
  C 208.29 394.25 115.51 424.94 50.23 376.29
  C 30.11 361.29 14.36 340.27 6.57 316.36
  C -22.45 227.32 62.40 139.68 152.26 164.47
  C 188.19 174.39 217.51 201.20 231.54 235.70
  C 233.89 241.48 259.95 244.61 265.60 244.83
  Q 271.53 245.05 274.25 246.02
  C 284.15 249.54 289.85 261.32 285.62 271.28
  Q 284.31 274.38 279.99 279.56
  Q 261.78 301.41 236.34 314.57
  C 235.27 315.13 234.44 316.49 234.01 317.76
  Z
  M 146.61 248.51
  Q 146.00 248.50 146.14 247.91
  Q 148.11 239.19 150.26 231.12
  C 152.42 223.04 150.57 215.46 145.33 209.09
  C 140.15 202.78 132.85 200.45 128.59 209.78
  C 122.01 224.23 115.91 241.90 104.40 253.24
  A 1.33 1.32 67.9 0 0 104.00 254.19
  L 104.00 324.98
  Q 104.00 325.44 104.41 325.65
  C 110.78 329.02 116.42 332.29 122.25 332.44
  Q 127.06 332.56 139.63 332.49
  Q 150.46 332.44 154.78 331.38
  C 170.90 327.45 181.47 313.30 181.83 296.75
  C 181.95 291.13 182.35 284.82 181.63 279.77
  C 179.09 262.03 164.58 248.80 146.61 248.51
  Z
  M 91.64 331.10
  A 0.61 0.60 -12.1 0 0 92.00 330.55
  L 92.00 250.74
  Q 92.00 250.23 91.56 249.96
  C 87.38 247.43 77.75 248.50 72.78 248.52
  C 66.83 248.53 62.23 249.56 59.51 254.77
  Q 58.00 257.68 58.00 264.99
  Q 58.00 291.17 58.00 317.35
  C 58.00 323.48 58.93 328.30 64.36 331.04
  Q 67.31 332.53 74.86 332.53
  C 80.33 332.53 86.55 333.31 91.64 331.10
  Z"
/>
<path fill="#000000" d="
  M 361.50 361.54
  C 363.08 359.31 364.66 356.72 366.15 354.81
  C 403.19 307.39 478.37 316.27 502.77 371.88
  C 522.03 415.78 498.98 466.74 453.26 480.72
  C 406.22 495.11 358.92 462.63 350.71 415.53
  Q 350.62 415.02 350.23 414.69
  C 340.46 406.38 332.60 398.51 325.99 387.42
  Q 322.48 381.54 322.21 377.61
  C 321.71 370.42 327.32 363.57 334.58 362.53
  C 337.66 362.09 341.77 362.91 345.25 363.19
  Q 353.06 363.83 360.68 362.09
  A 1.42 1.40 -78.3 0 0 361.50 361.54
  Z
  M 406.06 424.54
  C 404.90 429.47 400.07 439.73 406.58 442.44
  C 411.63 444.54 414.20 440.78 415.41 436.27
  Q 416.98 430.41 418.58 424.51
  A 0.70 0.69 7.7 0 1 419.25 424.00
  L 433.99 424.00
  Q 434.59 424.00 434.43 424.58
  C 433.44 428.07 430.77 435.18 431.59 438.55
  C 432.62 442.75 438.99 444.16 441.68 440.98
  Q 442.80 439.64 443.84 435.74
  Q 445.32 430.15 446.86 424.53
  Q 446.99 424.04 447.50 424.04
  Q 454.62 423.96 461.75 423.89
  C 467.86 423.82 470.22 416.30 465.75 413.27
  C 462.57 411.11 454.73 411.99 450.70 412.00
  A 0.37 0.37 0.0 0 1 450.33 411.53
  L 454.36 396.50
  A 0.68 0.68 0.0 0 1 455.02 395.99
  C 458.67 396.01 466.08 396.78 469.14 395.15
  C 472.92 393.12 472.81 386.75 469.08 384.83
  C 466.42 383.46 461.66 384.03 458.29 383.99
  Q 457.74 383.98 457.88 383.44
  Q 459.21 378.20 460.71 373.00
  C 463.02 364.94 451.13 361.74 449.07 369.80
  Q 447.32 376.64 445.40 383.50
  A 0.69 0.68 7.8 0 1 444.74 384.00
  L 430.00 384.00
  Q 429.39 384.00 429.56 383.41
  C 430.90 378.73 435.79 367.55 428.51 365.49
  Q 422.71 363.85 420.92 370.06
  Q 418.99 376.75 417.09 383.52
  Q 416.95 384.00 416.45 384.00
  C 412.33 383.99 401.83 383.00 398.55 385.05
  C 395.19 387.14 395.23 392.99 398.68 395.03
  C 401.74 396.84 409.57 396.00 413.29 396.01
  Q 413.79 396.01 413.66 396.50
  L 409.71 411.25
  Q 409.52 411.94 408.81 411.95
  C 404.01 412.02 393.06 410.10 392.05 417.00
  C 390.84 425.29 400.81 424.00 405.64 424.00
  Q 406.19 424.01 406.06 424.54
  Z"
/>
<path fill="#000000" d="
  M 441.96 396.40
  L 437.84 411.76
  A 0.32 0.32 0.0 0 1 437.53 412.00
  L 422.35 412.00
  A 0.32 0.32 0.0 0 1 422.04 411.60
  L 426.16 396.24
  A 0.32 0.32 0.0 0 1 426.47 396.00
  L 441.65 396.00
  A 0.32 0.32 0.0 0 1 441.96 396.40
  Z"
/>
</svg>
