<?xml version="1.0" encoding="utf-8"?>
<!-- Generator: Adobe Illustrator 28.0.0, SVG Export Plug-In . SVG Version: 6.00 Build 0)  -->
<svg version="1.1" id="Capa_1" xmlns="http://www.w3.org/2000/svg" xmlns:xlink="http://www.w3.org/1999/xlink" x="0px" y="0px"
	 viewBox="0 0 500 238.3" style="enable-background:new 0 0 500 238.3;" xml:space="preserve">
<style type="text/css">
	.st0{fill:#CF2F2F;}
</style>
<g>
	<path class="st0" d="M153.9,45.3c-2.1,9.2-4.8,18.1-8.1,26.7c-3-19.1-25.9-64.1-44.5-72C82.5,7.9,59.7,52.8,56.7,72
		c-3.3-8.6-6-17.5-8.1-26.7C19.3,64.8,0,98.1,0,135.9c0,12.6,2.1,24.7,6.1,35.9c30.9,88.6,159.3,88.6,190.3,0
		c3.9-11.2,6.1-23.3,6.1-35.9C202.4,98.1,183.1,64.8,153.9,45.3z M175.5,149.5c0,17.2-14,31.2-31.2,31.2H58.1
		c-17.2,0-31.2-14-31.2-31.2l0,0c0-17.2,14-31.2,31.2-31.2h86.3C161.6,118.3,175.5,132.2,175.5,149.5L175.5,149.5z"/>
	<path class="st0" d="M53.1,135.5L68.5,146c-2.7,2.2-4.5,5.5-4.5,9.2c0,6.5,5.3,11.8,11.8,11.8c5.3,0,9.8-3.6,11.3-8.4l0,0l1.7-5.7
		l-33.5-21.1L53.1,135.5z"/>
	<path class="st0" d="M113.5,153l1.7,5.7l0,0c1.5,4.9,5.9,8.4,11.3,8.4c6.5,0,11.8-5.3,11.8-11.8c0-3.7-1.7-7.1-4.5-9.2l15.4-10.5
		l-2.3-3.7L113.5,153z"/>
	<polygon class="st0" points="283.9,72.2 268.5,72.2 268.5,111.2 242.9,72.2 227.5,72.2 227.5,135.2 242.9,135.2 242.9,96.3 
		268.5,135.2 283.9,135.2 	"/>
	<rect x="295" y="72.2" class="st0" width="15.3" height="63"/>
	<polygon class="st0" points="336.8,96.3 362.5,135.2 377.8,135.2 377.8,72.2 362.5,72.2 362.5,111.2 336.8,72.2 321.5,72.2 
		321.5,135.2 336.8,135.2 	"/>
	<path class="st0" d="M407.7,135.8c6.3,0,11.4-1.8,15.1-5.4c3.7-3.6,5.6-8.7,5.6-15.3V72.2h-15.3v42.9c0,2.3-0.5,4-1.5,5.2
		s-2.5,1.8-4.3,1.8c-2,0-3.6-0.7-4.7-2s-1.6-3.3-1.6-6h-15.3c0,6.9,2,12.3,6,16.1C395.7,133.9,401,135.8,407.7,135.8z"/>
	<path class="st0" d="M477.2,72.2h-17.8l-22.8,63h16.1l3.8-11.1H480l3.8,11.1H500L477.2,72.2z M460.5,112.2l7.7-23.1l7.8,23.1H460.5
		z"/>
	<polygon class="st0" points="227.5,217.7 242.9,217.7 242.9,192.3 262.1,192.3 262.1,180.3 242.9,180.3 242.9,167 268.5,167 
		268.5,154.8 227.5,154.8 	"/>
	<path class="st0" d="M322.7,158c-4.9-2.8-10.4-4.1-16.3-4.1s-11.3,1.4-16.3,4.1c-4.9,2.8-8.9,6.6-11.8,11.5s-4.4,10.4-4.4,16.6
		c0,6.2,1.4,11.7,4.4,16.6c2.9,4.9,6.8,8.8,11.8,11.5c4.9,2.8,10.4,4.1,16.3,4.1s11.3-1.4,16.2-4.1c4.9-2.8,8.8-6.6,11.7-11.5
		c2.9-4.9,4.3-10.5,4.3-16.6c0-6.2-1.4-11.7-4.3-16.6C331.5,164.6,327.6,160.7,322.7,158z M318.5,199.3c-3,3.4-7,5-12.1,5
		s-9.1-1.7-12.2-5c-3-3.3-4.5-7.8-4.5-13.3c0-5.6,1.5-10.1,4.5-13.4c3-3.3,7.1-4.9,12.2-4.9c5,0,9,1.7,12.1,5
		c3,3.3,4.5,7.8,4.5,13.3C323,191.6,321.5,196,318.5,199.3z"/>
	<path class="st0" d="M393.2,158c-4.9-2.8-10.4-4.1-16.3-4.1s-11.3,1.4-16.3,4.1c-4.9,2.8-8.9,6.6-11.8,11.5s-4.4,10.4-4.4,16.6
		c0,6.2,1.4,11.7,4.4,16.6c2.9,4.9,6.8,8.8,11.8,11.5c4.9,2.8,10.4,4.1,16.3,4.1s11.3-1.4,16.2-4.1c4.9-2.8,8.8-6.6,11.7-11.5
		c2.9-4.9,4.3-10.5,4.3-16.6c0-6.2-1.4-11.7-4.3-16.6C402,164.6,398.1,160.7,393.2,158z M389,199.3c-3,3.4-7,5-12.1,5
		s-9.1-1.7-12.2-5c-3-3.3-4.5-7.8-4.5-13.3c0-5.6,1.5-10.1,4.5-13.4c3-3.3,7.1-4.9,12.2-4.9c5,0,9,1.7,12.1,5
		c3,3.3,4.5,7.8,4.5,13.3C393.5,191.6,392,196,389,199.3z"/>
	<path class="st0" d="M458.6,158.7c-5-2.6-10.8-3.9-17.4-3.9h-23.6v63h23.6c6.6,0,12.4-1.3,17.4-3.9c5-2.6,8.8-6.3,11.6-11.1
		c2.7-4.8,4.1-10.3,4.1-16.4c0-6.2-1.4-11.7-4.1-16.5C467.4,165,463.6,161.3,458.6,158.7z M453.8,199.7c-3.2,3.2-7.7,4.8-13.5,4.8
		H433v-36.6h7.3c5.8,0,10.3,1.6,13.5,4.8s4.8,7.7,4.8,13.5C458.6,192.1,457,196.5,453.8,199.7z"/>
</g>
</svg>
